<svg width="26" height="26" viewBox="0 0 26 26" fill="none" xmlns="http://www.w3.org/2000/svg">
<path d="M10.3333 25L10.3333 24.25H10.3333V25ZM9 25L9 25.75H9V25ZM1 17L1.75 17L1 17ZM1 9L0.25 9L1 9ZM9 1L9 0.25L9 1ZM10.3333 1L10.3333 1.75L10.3333 1ZM1.08208 6.62377L0.341311 6.50644L0.341311 6.50644L1.08208 6.62377ZM6.62377 1.08208L6.7411 1.82284L6.62377 1.08208ZM6.62377 24.9179L6.50644 25.6587L6.50644 25.6587L6.62377 24.9179ZM1.08208 19.3762L0.341311 19.4936L0.341311 19.4936L1.08208 19.3762ZM14.7838 24.2668C15.115 24.0181 15.1818 23.5479 14.933 23.2167C14.6842 22.8855 14.2141 22.8187 13.8829 23.0675L14.7838 24.2668ZM13.8829 2.93252C14.2141 3.18129 14.6842 3.11447 14.933 2.78328C15.1818 2.45209 15.115 1.98194 14.7838 1.73317L13.8829 2.93252ZM6.33333 12.25C5.91912 12.25 5.58333 12.5858 5.58333 13C5.58333 13.4142 5.91912 13.75 6.33333 13.75L6.33333 12.25ZM23.6667 13L23.6667 13.75H23.6667V13ZM20.1326 7.07898C19.8081 6.82164 19.3363 6.87613 19.079 7.2007C18.8216 7.52527 18.8761 7.997 19.2007 8.25435L20.1326 7.07898ZM22.0173 9.53046L22.4833 8.94278L22.4833 8.94278L22.0173 9.53046ZM22.0173 16.4695L22.4833 17.0572L22.4833 17.0572L22.0173 16.4695ZM19.2007 17.7456C18.8761 18.003 18.8216 18.4747 19.079 18.7993C19.3363 19.1239 19.8081 19.1784 20.1326 18.921L19.2007 17.7456ZM24.9735 12.6658L25.7141 12.5478L25.7141 12.5478L24.9735 12.6658ZM24.9735 13.3342L25.7141 13.4522L25.7141 13.4522L24.9735 13.3342ZM25 13L25.75 13L25 13ZM10.3333 24.25H9V25.75H10.3333V24.25ZM1.75 17L1.75 9L0.25 9L0.25 17L1.75 17ZM9 1.75L10.3333 1.75L10.3333 0.25L9 0.25L9 1.75ZM1.75 9C1.75 7.73266 1.75233 7.18632 1.82284 6.74109L0.341311 6.50644C0.247673 7.09766 0.25 7.78998 0.25 9L1.75 9ZM9 0.25C7.78999 0.25 7.09766 0.247672 6.50644 0.341311L6.7411 1.82284C7.18632 1.75233 7.73267 1.75 9 1.75L9 0.25ZM1.82284 6.7411C2.22383 4.2094 4.2094 2.22383 6.7411 1.82284L6.50644 0.341311C3.33291 0.84395 0.84395 3.33291 0.341311 6.50644L1.82284 6.7411ZM9 24.25C7.73267 24.25 7.18632 24.2477 6.74109 24.1772L6.50644 25.6587C7.09766 25.7523 7.78999 25.75 9 25.75L9 24.25ZM0.25 17C0.25 18.21 0.247672 18.9023 0.341311 19.4936L1.82284 19.2589C1.75233 18.8137 1.75 18.2673 1.75 17L0.25 17ZM6.7411 24.1772C4.2094 23.7762 2.22382 21.7906 1.82284 19.2589L0.341311 19.4936C0.843949 22.6671 3.33291 25.1561 6.50644 25.6587L6.7411 24.1772ZM10.3333 25.75C12.0021 25.75 13.5441 25.198 14.7838 24.2668L13.8829 23.0675C12.8941 23.8102 11.6662 24.25 10.3333 24.25L10.3333 25.75ZM10.3333 1.75C11.6662 1.75 12.8941 2.18981 13.8829 2.93252L14.7838 1.73317C13.5441 0.802046 12.0021 0.25 10.3333 0.25L10.3333 1.75ZM6.33333 13.75L23.6667 13.75L23.6667 12.25L6.33333 12.25L6.33333 13.75ZM19.2007 8.25435L21.5513 10.1181L22.4833 8.94278L20.1326 7.07898L19.2007 8.25435ZM21.5513 15.8819L19.2007 17.7456L20.1326 18.921L22.4833 17.0572L21.5513 15.8819ZM21.5513 10.1181C22.503 10.8727 23.1655 11.3995 23.6149 11.8472C24.061 12.2915 24.1979 12.5644 24.2328 12.7838L25.7141 12.5478C25.6048 11.8614 25.2009 11.3098 24.6735 10.7845C24.1496 10.2625 23.4062 9.67457 22.4833 8.94278L21.5513 10.1181ZM22.4833 17.0572C23.4062 16.3254 24.1496 15.7375 24.6735 15.2155C25.2009 14.6902 25.6048 14.1386 25.7141 13.4522L24.2328 13.2162C24.1979 13.4356 24.061 13.7085 23.6149 14.1528C23.1655 14.6005 22.503 15.1273 21.5513 15.8819L22.4833 17.0572ZM24.2328 12.7838C24.2443 12.8559 24.25 12.928 24.25 13L25.75 13C25.75 12.8487 25.738 12.6976 25.7141 12.5478L24.2328 12.7838ZM24.25 13C24.25 13.072 24.2443 13.1441 24.2328 13.2162L25.7141 13.4522C25.738 13.3024 25.75 13.1513 25.75 13L24.25 13ZM23.6667 13.75H25V12.25H23.6667V13.75Z" fill="#FAFAFA"/>
</svg>
