<svg width="18" height="18" viewBox="0 0 18 18" fill="none" xmlns="http://www.w3.org/2000/svg">
<path d="M14.7804 12.9697C14.4875 12.6768 14.0126 12.6768 13.7197 12.9697C13.4268 13.2626 13.4268 13.7375 13.7197 14.0304L14.7804 12.9697ZM16.7196 17.0304C17.0125 17.3233 17.4874 17.3233 17.7803 17.0304C18.0732 16.7375 18.0732 16.2626 17.7803 15.9697L16.7196 17.0304ZM7.03067 3.78693C7.43978 3.72213 7.71891 3.33795 7.65411 2.92884C7.58931 2.51973 7.20513 2.2406 6.79602 2.3054L7.03067 3.78693ZM3.05538 6.04604C2.99058 6.45516 3.2697 6.83934 3.67882 6.90413C4.08793 6.96893 4.47211 6.68981 4.53691 6.28069L3.05538 6.04604ZM13.7197 14.0304L16.7196 17.0304L17.7803 15.9697L14.7804 12.9697L13.7197 14.0304ZM8.25 13.5C4.93629 13.5 2.25 10.8137 2.25 7.5H0.75C0.75 11.6421 4.10786 15 8.25 15V13.5ZM14.25 7.5C14.25 10.8137 11.5637 13.5 8.25 13.5V15C12.3921 15 15.75 11.6421 15.75 7.5H14.25ZM8.25 1.5C11.5637 1.5 14.25 4.18629 14.25 7.5H15.75C15.75 3.35786 12.3921 0 8.25 0V1.5ZM8.25 0C4.10786 0 0.75 3.35786 0.75 7.5H2.25C2.25 4.18629 4.93629 1.5 8.25 1.5V0ZM6.79602 2.3054C4.8705 2.61037 3.36035 4.12053 3.05538 6.04604L4.53691 6.28069C4.74022 4.99702 5.74699 3.99025 7.03067 3.78693L6.79602 2.3054Z" fill="#86888D"/>
</svg>