<svg width="42" height="42" viewBox="0 0 42 42" fill="none" xmlns="http://www.w3.org/2000/svg">
<path d="M40.2929 21.0006C40.2957 20.2286 40.0798 19.4716 39.6702 18.8172C39.2606 18.1629 38.6739 17.638 37.9783 17.3033L18.1511 7.6666C17.1179 7.16433 16.0045 7.01728 14.9255 7.24072C13.9263 7.45642 13.0135 7.96368 12.3027 8.69831C11.5918 9.43294 11.1149 10.3619 10.9322 11.3677C10.747 12.4544 10.9284 13.5639 11.465 14.578L13.7243 18.8578C13.8714 19.138 14.0925 19.3724 14.3636 19.5357C14.6346 19.699 14.9452 19.7849 15.2616 19.784L20.5097 19.784C20.8323 19.784 21.1417 19.9122 21.3699 20.1404C21.598 20.3685 21.7262 20.6779 21.7262 21.0006C21.7262 21.3232 21.598 21.6326 21.3699 21.8608C21.1417 22.0889 20.8323 22.2171 20.5097 22.2171L15.2616 22.2171C14.9452 22.2162 14.6346 22.3021 14.3636 22.4654C14.0925 22.6287 13.8714 22.8632 13.7243 23.1433L11.465 27.4231C10.9284 28.4372 10.747 29.5468 10.9322 30.6334C11.11 31.6411 11.5879 32.5717 12.3034 33.3033L12.3645 33.3644C13.0645 34.0692 13.9554 34.5538 14.9274 34.7585C16.0064 34.9819 17.1198 34.8349 18.153 34.3326L37.9802 24.6959C38.6752 24.3611 39.2612 23.8364 39.6705 23.1824C40.0798 22.5285 40.2955 21.772 40.2929 21.0006Z" fill="#B0B0B0"/>
<path d="M8.92447 22.1873C9.5705 22.1873 10.0942 21.6636 10.0942 21.0176C10.0942 20.3716 9.5705 19.8479 8.92447 19.8479L5.80519 19.8479C5.15916 19.8479 4.63545 20.3716 4.63545 21.0176C4.63545 21.6636 5.15916 22.1873 5.80519 22.1873L8.92447 22.1873Z" fill="#B0B0B0"/>
<path d="M6.97492 16.3387C6.97492 16.9847 6.45121 17.5084 5.80519 17.5084L2.6859 17.5084C2.03987 17.5084 1.51617 16.9847 1.51617 16.3387C1.51617 15.6927 2.03987 15.1689 2.6859 15.1689L5.80519 15.1689C6.45121 15.1689 6.97492 15.6927 6.97492 16.3387Z" fill="#B0B0B0"/>
<path d="M5.80519 26.8663C6.45121 26.8663 6.97492 26.3426 6.97492 25.6965C6.97492 25.0505 6.45121 24.5268 5.80519 24.5268L2.6859 24.5268C2.03987 24.5268 1.51617 25.0505 1.51617 25.6965C1.51617 26.3426 2.03987 26.8663 2.6859 26.8663L5.80519 26.8663Z" fill="#B0B0B0"/>
</svg>
