<svg width="31" height="28" viewBox="0 0 31 28" fill="none" xmlns="http://www.w3.org/2000/svg">
<path d="M30.2929 14.0006C30.2957 13.2286 30.0798 12.4716 29.6702 11.8172C29.2606 11.1629 28.6739 10.638 27.9783 10.3033L8.15112 0.666597C7.11794 0.16433 6.00455 0.0172796 4.92553 0.240723C3.92631 0.456416 3.01352 0.963675 2.30268 1.69831C1.59184 2.43294 1.1149 3.36193 0.932218 4.36772C0.74697 5.45438 0.928399 6.56395 1.46504 7.57803L3.72429 11.8578C3.87142 12.138 4.09252 12.3724 4.36356 12.5357C4.6346 12.699 4.94522 12.7849 5.26165 12.784L10.5097 12.784C10.8323 12.784 11.1417 12.9122 11.3699 13.1404C11.598 13.3685 11.7262 13.6779 11.7262 14.0006C11.7262 14.3232 11.598 14.6326 11.3699 14.8608C11.1417 15.0889 10.8323 15.2171 10.5097 15.2171L5.26165 15.2171C4.94522 15.2162 4.6346 15.3021 4.36356 15.4654C4.09252 15.6287 3.87142 15.8632 3.72429 16.1433L1.46504 20.4231C0.92839 21.4372 0.746961 22.5468 0.932208 23.6334C1.10996 24.6411 1.58789 25.5717 2.30342 26.3033L2.36453 26.3644C3.06453 27.0692 3.95542 27.5538 4.92743 27.7585C6.00645 27.9819 7.11984 27.8349 8.15302 27.3326L27.9802 17.6959C28.6752 17.3611 29.2612 16.8364 29.6705 16.1824C30.0798 15.5285 30.2955 14.772 30.2929 14.0006Z" fill="#B0B0B0"/>
</svg>
