<svg width="185" height="51" viewBox="0 0 185 51" fill="none" xmlns="http://www.w3.org/2000/svg">
<path d="M18.6621 40H11.4004V10.877H0.457031V3.58984H29.5801V10.877H18.6621V40ZM63.2227 30.1738C63.2227 31.5957 62.9518 32.9414 62.4102 34.2109C61.8685 35.4635 61.1237 36.5553 60.1758 37.4863C59.2448 38.4173 58.1445 39.1536 56.875 39.6953C55.6224 40.237 54.2767 40.5078 52.8379 40.5078C51.5514 40.5078 50.3158 40.2878 49.1309 39.8477C47.946 39.3906 46.8711 38.7305 45.9062 37.8672C44.9583 38.7305 43.8919 39.3906 42.707 39.8477C41.5391 40.2878 40.3034 40.5078 39 40.5078C37.5612 40.5078 36.2155 40.237 34.9629 39.6953C33.7103 39.1536 32.61 38.4173 31.6621 37.4863C30.7311 36.5553 29.9948 35.4635 29.4531 34.2109C28.9115 32.9414 28.6406 31.5957 28.6406 30.1738V12.8574H35.5723V30.1738C35.5723 30.6478 35.6569 31.0964 35.8262 31.5195C36.0124 31.9258 36.2578 32.2897 36.5625 32.6113C36.8841 32.916 37.248 33.1615 37.6543 33.3477C38.0775 33.5169 38.526 33.6016 39 33.6016C39.474 33.6016 39.9225 33.5169 40.3457 33.3477C40.7689 33.1615 41.1413 32.916 41.4629 32.6113C41.7845 32.2897 42.0299 31.9258 42.1992 31.5195C42.3854 31.0964 42.4785 30.6478 42.4785 30.1738V12.8574H49.3848V30.1738C49.3848 30.6478 49.4779 31.0964 49.6641 31.5195C49.8503 31.9258 50.0957 32.2897 50.4004 32.6113C50.722 32.916 51.0859 33.1615 51.4922 33.3477C51.9154 33.5169 52.3639 33.6016 52.8379 33.6016C53.3118 33.6016 53.7604 33.5169 54.1836 33.3477C54.6068 33.1615 54.9707 32.916 55.2754 32.6113C55.597 32.2897 55.8509 31.9258 56.0371 31.5195C56.2233 31.0964 56.3164 30.6478 56.3164 30.1738V12.8574H63.2227V30.1738ZM76.4258 5.41797C76.4258 6.0612 76.2988 6.66211 76.0449 7.2207C75.8079 7.7793 75.4779 8.27018 75.0547 8.69336C74.6315 9.09961 74.1322 9.42969 73.5566 9.68359C72.998 9.92057 72.3971 10.0391 71.7539 10.0391C71.1107 10.0391 70.5013 9.92057 69.9258 9.68359C69.3672 9.42969 68.8763 9.09961 68.4531 8.69336C68.0469 8.27018 67.7168 7.7793 67.4629 7.2207C67.2259 6.66211 67.1074 6.0612 67.1074 5.41797C67.1074 4.79167 67.2259 4.19922 67.4629 3.64062C67.7168 3.0651 68.0469 2.57422 68.4531 2.16797C68.8763 1.74479 69.3672 1.41471 69.9258 1.17773C70.5013 0.923828 71.1107 0.796875 71.7539 0.796875C72.3971 0.796875 72.998 0.923828 73.5566 1.17773C74.1322 1.41471 74.6315 1.74479 75.0547 2.16797C75.4779 2.57422 75.8079 3.0651 76.0449 3.64062C76.2988 4.19922 76.4258 4.79167 76.4258 5.41797ZM75.2324 40H68.25V12.8066H75.2324V40ZM87.5215 40H80.5391V1.99023H87.5215V40ZM101.004 5.41797C101.004 6.0612 100.877 6.66211 100.623 7.2207C100.386 7.7793 100.056 8.27018 99.6328 8.69336C99.2096 9.09961 98.7103 9.42969 98.1348 9.68359C97.5762 9.92057 96.9753 10.0391 96.332 10.0391C95.6888 10.0391 95.0794 9.92057 94.5039 9.68359C93.9453 9.42969 93.4544 9.09961 93.0312 8.69336C92.625 8.27018 92.2949 7.7793 92.041 7.2207C91.804 6.66211 91.6855 6.0612 91.6855 5.41797C91.6855 4.79167 91.804 4.19922 92.041 3.64062C92.2949 3.0651 92.625 2.57422 93.0312 2.16797C93.4544 1.74479 93.9453 1.41471 94.5039 1.17773C95.0794 0.923828 95.6888 0.796875 96.332 0.796875C96.9753 0.796875 97.5762 0.923828 98.1348 1.17773C98.7103 1.41471 99.2096 1.74479 99.6328 2.16797C100.056 2.57422 100.386 3.0651 100.623 3.64062C100.877 4.19922 101.004 4.79167 101.004 5.41797ZM99.8105 40H92.8281V12.8066H99.8105V40ZM124.465 26.1621C124.465 25.2142 124.279 24.3001 123.906 23.4199C123.551 22.5228 123.06 21.7357 122.434 21.0586C121.807 20.3646 121.071 19.8145 120.225 19.4082C119.395 18.985 118.507 18.7734 117.559 18.7734C116.611 18.7734 115.714 18.9342 114.867 19.2559C114.038 19.5775 113.31 20.0514 112.684 20.6777C112.074 21.304 111.592 22.0827 111.236 23.0137C110.881 23.9277 110.703 24.9772 110.703 26.1621C110.703 27.2962 110.881 28.3203 111.236 29.2344C111.592 30.1315 112.074 30.9017 112.684 31.5449C113.31 32.1882 114.038 32.6875 114.867 33.043C115.714 33.3815 116.611 33.5508 117.559 33.5508C118.507 33.5508 119.395 33.3477 120.225 32.9414C121.071 32.5182 121.807 31.9681 122.434 31.291C123.06 30.597 123.551 29.8099 123.906 28.9297C124.279 28.0326 124.465 27.11 124.465 26.1621ZM131.447 36.5723C131.447 38.485 131.083 40.2793 130.355 41.9551C129.628 43.6309 128.629 45.0951 127.359 46.3477C126.107 47.6003 124.634 48.5905 122.941 49.3184C121.266 50.0462 119.471 50.4102 117.559 50.4102L114.08 50.3594V43.4277L117.508 43.4785C118.591 43.4785 119.514 43.3346 120.275 43.0469C121.037 42.776 121.68 42.3952 122.205 41.9043C122.73 41.4303 123.145 40.8802 123.449 40.2539C123.771 39.6276 124.025 38.9674 124.211 38.2734C123.94 38.7135 123.551 39.0775 123.043 39.3652C122.535 39.6361 121.968 39.8561 121.342 40.0254C120.732 40.2116 120.089 40.3385 119.412 40.4062C118.752 40.474 118.134 40.5078 117.559 40.5078C115.646 40.5078 113.843 40.1777 112.15 39.5176C110.475 38.8574 109.002 37.918 107.732 36.6992C106.48 35.4635 105.49 33.957 104.762 32.1797C104.034 30.4023 103.67 28.3965 103.67 26.1621C103.67 24.1139 104.034 22.2096 104.762 20.4492C105.49 18.6888 106.48 17.1654 107.732 15.8789C109.002 14.5924 110.475 13.5853 112.15 12.8574C113.843 12.1296 115.646 11.7656 117.559 11.7656C118.439 11.7656 119.311 11.8757 120.174 12.0957C121.037 12.3158 121.875 12.6204 122.688 13.0098C123.5 13.3991 124.27 13.8561 124.998 14.3809C125.743 14.9056 126.437 15.4727 127.08 16.082L129.771 12.8574H131.447V36.5723ZM143.686 40H136.754V1.99023H143.686V14C144.515 13.3737 145.37 12.9336 146.25 12.6797C147.13 12.4089 148.027 12.2734 148.941 12.2734C150.617 12.2734 152.191 12.5951 153.664 13.2383C155.137 13.8646 156.415 14.7363 157.498 15.8535C158.598 16.9538 159.462 18.2487 160.088 19.7383C160.731 21.2109 161.053 22.7852 161.053 24.4609V40H154.07V24.4609H154.121C154.121 23.75 153.986 23.0814 153.715 22.4551C153.444 21.8118 153.072 21.2533 152.598 20.7793C152.124 20.3053 151.574 19.9329 150.947 19.6621C150.321 19.3913 149.652 19.2559 148.941 19.2559C148.214 19.2559 147.528 19.3913 146.885 19.6621C146.242 19.9329 145.683 20.3053 145.209 20.7793C144.735 21.2533 144.363 21.8118 144.092 22.4551C143.821 23.0814 143.686 23.75 143.686 24.4609V40ZM179.283 40C177.607 40 176.033 39.6868 174.561 39.0605C173.088 38.4173 171.793 37.5456 170.676 36.4453C169.576 35.3281 168.704 34.0332 168.061 32.5605C167.434 31.0879 167.121 29.5137 167.121 27.8379V19.7637H163.744V12.8574H167.121V1.99023H174.027V12.8574H184.539V19.7637H174.027V27.8379C174.027 28.5658 174.163 29.2513 174.434 29.8945C174.704 30.5208 175.077 31.071 175.551 31.5449C176.025 32.0189 176.583 32.3997 177.227 32.6875C177.87 32.9583 178.555 33.0938 179.283 33.0938H184.539V40H179.283Z" fill="url(#paint0_linear_2_17)"/>
<defs>
<linearGradient id="paint0_linear_2_17" x1="19.9906" y1="-99.3333" x2="218.717" y2="84.8091" gradientUnits="userSpaceOnUse">
<stop stop-color="#FF35BD"/>
<stop offset="1" stop-color="#8A43F7"/>
</linearGradient>
</defs>
</svg>
